<mxfile host="app.diagrams.net" modified="2024-06-13T23:36:53.326Z" agent="Mozilla/5.0 (Windows NT 10.0; Win64; x64) AppleWebKit/537.36 (KHTML, like Gecko) Chrome/125.0.0.0 Safari/537.36" version="24.5.4" etag="eXD-YnHfBPU2m6ojuwWG" type="github">
  <diagram name="Page-1" id="ZWI2EnrOX-8mN2XhOwRM">
    <mxGraphModel>
      <root>
        <mxCell id="0" />
        <mxCell id="1" parent="0" />
      </root>
    </mxGraphModel>
  </diagram>
</mxfile>
